HIERARCHY
ROOT root
{
	OFFSET	0	13.1	24.9
	CHANNELS 6  Xposition Yposition Zposition Xrotation Yrotation Zrotation
	JOINT spine_1
	{
		OFFSET	0	9.99999	0
		CHANNELS 3  Xrotation Yrotation Zrotation
		JOINT spine_2
		{
			OFFSET	0	112	-10
			CHANNELS 3  Xrotation Yrotation Zrotation
			JOINT spine_3
			{
				OFFSET	0	206.5	19.3
				CHANNELS 3  Xrotation Yrotation Zrotation
				JOINT spine_4
				{
					OFFSET	0	110.4	14.6
					CHANNELS 3  Xrotation Yrotation Zrotation
					JOINT neck_1
					{
						OFFSET	0	71.8	-50.3
						CHANNELS 3  Xrotation Yrotation Zrotation
						JOINT neck_2
						{
							OFFSET	0	86.2	-25.8
							CHANNELS 3  Xrotation Yrotation Zrotation
							JOINT head_ee
							{
								OFFSET	0	179.8	-8.7
								CHANNELS 3  Xrotation Yrotation Zrotation
								End Site
								{
									OFFSET	1	0	0
								}
							}
						}
					}
					JOINT left_clavicle
					{
						OFFSET	-43.2	22.4	-70.8
						CHANNELS 3  Xrotation Yrotation Zrotation
						JOINT left_shoulder
						{
							OFFSET	-93.9	-5.79999	48.7
							CHANNELS 3  Xrotation Yrotation Zrotation
							JOINT left_elbow
							{
								OFFSET	-291.4	-30.8	15.2
								CHANNELS 3  Xrotation Yrotation Zrotation
								JOINT left_lowarm_twist
								{
									OFFSET	-110.7	-3.89999	13.6
									CHANNELS 3  Xrotation Yrotation Zrotation
									JOINT left_hand
									{
										OFFSET	-110.7	-3.89999	13.6
										CHANNELS 3  Xrotation Yrotation Zrotation
										JOINT left_ee
										{
											OFFSET	-80.8	-5.10001	12.1
											CHANNELS 3  Xrotation Yrotation Zrotation
											End Site
											{
												OFFSET	1	0	0
											}
										}
									}
								}
							}
						}
					}
					JOINT right_clavicle
					{
						OFFSET	43.2	22.4	-70.8
						CHANNELS 3  Xrotation Yrotation Zrotation
						JOINT right_shoulder
						{
							OFFSET	93.9	-5.79999	48.7
							CHANNELS 3  Xrotation Yrotation Zrotation
							JOINT right_elbow
							{
								OFFSET	291.4	-30.8	15.2
								CHANNELS 3  Xrotation Yrotation Zrotation
								JOINT right_lowarm_twist
								{
									OFFSET	110.7	-3.89999	13.6
									CHANNELS 3  Xrotation Yrotation Zrotation
									JOINT right_hand
									{
										OFFSET	110.7	-3.89999	13.6
										CHANNELS 3  Xrotation Yrotation Zrotation
										JOINT right_ee
										{
											OFFSET	80.8	-5.10001	12.1
											CHANNELS 3  Xrotation Yrotation Zrotation
											End Site
											{
												OFFSET	1	0	0
											}
										}
									}
								}
							}
						}
					}
				}
			}
		}
	}
	JOINT left_hip
	{
		OFFSET	-82.8	-127.5	0.300001
		CHANNELS 3  Xrotation Yrotation Zrotation
		JOINT left_knee
		{
			OFFSET	-28.2	-396.7	2.2
			CHANNELS 3  Xrotation Yrotation Zrotation
			JOINT left_ankle
			{
				OFFSET	-11.7	-411.3	35.4
				CHANNELS 3  Xrotation Yrotation Zrotation
				JOINT left_toes
				{
					OFFSET	0	-60	-88.6
					CHANNELS 3  Xrotation Yrotation Zrotation
					JOINT left_foot_ee
					{
						OFFSET	-22.5	-16.5	-42.2
						CHANNELS 3  Xrotation Yrotation Zrotation
						End Site
						{
							OFFSET	1	0	0
						}
					}
				}
			}
		}
	}
	JOINT right_hip
	{
		OFFSET	82.8	-127.5	0.300001
		CHANNELS 3  Xrotation Yrotation Zrotation
		JOINT right_knee
		{
			OFFSET	28.2	-396.7	2.2
			CHANNELS 3  Xrotation Yrotation Zrotation
			JOINT right_ankle
			{
				OFFSET	11.7	-411.3	35.4
				CHANNELS 3  Xrotation Yrotation Zrotation
				JOINT right_toes
				{
					OFFSET	0	-60	-88.6
					CHANNELS 3  Xrotation Yrotation Zrotation
					JOINT right_foot_ee
					{
						OFFSET	22.5	-16.5	-42.2
						CHANNELS 3  Xrotation Yrotation Zrotation
						End Site
						{
							OFFSET	1	0	0
						}
					}
				}
			}
		}
	}
}
MOTION
Frames: 5
Frame Time: 0.02
1261.9863514 739.455 -1763.26927759 0.864083471119 12.7394728836 -2.53094743592 -1.25768 0.261623 1.55828 -1.25635 0.161948 1.57176 -1.25071 -0.20629 1.56656 -1.25413 0.0436757 1.57948 -2.19384 1.05615 -2.67369 -2.1603 4.02243 -2.66529 -0.0 0.0 -0.0 1.45111 19.1492 4.40112 -5.50811 -25.2984 69.7901 0.556957 -15.4244 0.0754247 -15.708 -0.810078 1.83162 -0.105129 17.5709 6.50007 -0.0 0.0 -0.0 11.968 24.3458 -23.4854 -5.46527 22.213 -54.0933 1.23464 31.4488 -0.34762 -13.2773 0.652219 -1.56356 4.05187 -30.7709 -36.0158 0.0 0.0 0.0 25.9826 -4.69882 -3.27335 -70.9032 -3.48492 9.60885 32.832 0.458115 -4.20144 -16.4494 0.0 0.0 -0.0 0.0 -0.0 22.7323 13.8838 -1.99022 -23.6532 -0.234406 -3.59649 12.7951 -0.28357 1.81557 18.3407 -0.0 -0.0 0.0 0.0 0.0 
1221.06177956 743.055 -1798.11227432 2.02909775328 16.8545654615 -4.10283628806 -1.45277 0.103491 1.89063 -1.45078 -0.0170028 1.89339 -1.44976 -0.46134 1.83642 -1.45443 -0.165576 1.88621 1.10777 0.493974 -2.78794 1.14417 3.19229 -2.99321 -0.0 0.0 -0.0 0.972474 17.9259 3.58107 -9.11331 -26.2707 71.2632 0.44582 -12.4539 0.0486438 -15.2082 -0.776687 1.77704 0.639396 22.4902 12.7916 -0.0 0.0 -0.0 12.305 25.0805 -24.1805 -2.95758 19.2739 -52.9889 1.51716 36.9245 -0.506552 -14.29 0.716598 -1.67604 3.88047 -30.0888 -34.7882 0.0 0.0 0.0 32.247 -1.73665 -3.76605 -70.1574 -3.39063 9.54265 31.2127 0.123848 -4.03743 -14.6457 0.0 0.0 -0.0 0.0 -0.0 18.5863 13.9213 0.366277 -27.1343 -0.143116 -4.12285 14.1153 1.06197 1.99889 22.149 -0.0 -0.0 0.0 0.0 0.0 
1196.51487791 743.573 -1809.04472505 1.83118717317 20.0027674967 -4.00413639356 -1.37638 0.0447533 1.93365 -1.3743 -0.0783569 1.93258 -1.37542 -0.527806 1.86078 -1.38018 -0.227363 1.92076 0.661009 0.609597 -2.83805 0.699291 3.42666 -3.01777 -0.0 0.0 -0.0 0.98129 17.5917 3.56546 -11.2763 -26.8208 71.1773 0.429392 -12.0085 0.0451633 -13.5056 -0.666557 1.58901 1.21087 23.4016 16.5138 -0.0 0.0 -0.0 12.3849 25.6875 -24.2969 -3.34874 21.0722 -51.2783 1.57814 38.0142 -0.543645 -13.7167 0.67991 -1.61251 3.8691 -28.6955 -34.5779 0.0 0.0 0.0 34.3912 -1.29433 -4.31622 -69.7405 -3.33831 9.50512 28.3697 -1.7016 -3.74768 -15.6985 0.0 0.0 -0.0 0.0 -0.0 16.8263 13.6554 0.848867 -28.1267 -0.111247 -4.27181 16.6522 9.2733 2.4084 24.2886 -0.0 -0.0 0.0 0.0 0.0 
1157.19429561 741.332 -1812.71134335 1.64297462375 24.9456880099 -4.12378503633 -1.28482 0.0196865 1.75359 -1.28311 -0.0919217 1.75129 -1.28473 -0.495945 1.68214 -1.28861 -0.224101 1.73933 1.42379 0.719248 -3.15891 1.47377 3.90774 -3.39312 -0.0 0.0 -0.0 0.871478 18.2962 3.46019 -12.1854 -27.162 72.3521 0.413915 -11.5876 0.0419989 -13.1169 -0.642208 1.54565 1.53059 25.5178 19.0503 -0.0 0.0 -0.0 12.1041 25.1853 -23.709 -2.9635 20.2304 -50.2672 1.75529 41.004 -0.656391 -13.8251 0.686795 -1.62454 3.82232 -28.3202 -34.214 0.0 0.0 0.0 35.1036 -1.30422 -4.43122 -67.5066 -3.0627 9.29763 27.5982 -2.02503 -3.66521 -15.4907 0.0 0.0 -0.0 0.0 -0.0 15.2542 14.1307 1.75535 -29.1055 -0.0772861 -4.41819 16.368 7.31869 2.34782 25.0309 -0.0 -0.0 0.0 0.0 0.0 
1129.55328535 744.081 -1818.71012618 1.62005704592 26.9354960012 -3.77904054332 -1.1243 0.369574 1.62768 -1.12287 0.265266 1.64789 -1.1139 -0.119388 1.66482 -1.11774 0.145001 1.66279 1.47112 1.73 -4.04225 1.57199 6.42812 -4.27785 -0.0 0.0 -0.0 1.05196 18.9809 3.7912 -14.5673 -27.8994 72.0734 0.462945 -12.9165 0.0524043 -14.5709 -0.734806 1.70704 1.14741 27.8689 17.4431 -0.0 0.0 -0.0 12.4273 20.7414 -24.8629 -0.395471 17.1114 -50.4253 2.06806 45.6866 -0.87125 -15.3422 0.785594 -1.7917 3.87064 -28.0556 -34.5192 0.0 0.0 0.0 31.7293 -0.585656 -5.06904 -59.095 -2.10306 8.42498 27.073 0.178793 -3.58855 -15.1385 0.0 0.0 -0.0 0.0 -0.0 13.346 12.1344 2.09173 -27.77 -0.123001 -4.21832 18.5408 4.85595 2.60595 24.3179 -0.0 -0.0 0.0 0.0 0.0 
